<mxfile host="app.diagrams.net" agent="Mozilla/5.0 (X11; Linux x86_64; rv:138.0) Gecko/20100101 Firefox/138.0" version="27.0.9">
  <diagram name="Page-1" id="TVUlLlsYGpmPz4XyGPdH">
    <mxGraphModel dx="663" dy="385" grid="1" gridSize="10" guides="1" tooltips="1" connect="1" arrows="1" fold="1" page="1" pageScale="1" pageWidth="400" pageHeight="480" math="0" shadow="0">
      <root>
        <mxCell id="0" />
        <mxCell id="1" parent="0" />
        <mxCell id="-z7ZguEvUrwJFCWL5diD-4" value="" style="swimlane;startSize=0;" vertex="1" parent="1">
          <mxGeometry x="53" y="110" width="295" height="370" as="geometry" />
        </mxCell>
        <mxCell id="-z7ZguEvUrwJFCWL5diD-32" style="edgeStyle=orthogonalEdgeStyle;rounded=0;orthogonalLoop=1;jettySize=auto;html=1;entryX=0.5;entryY=0;entryDx=0;entryDy=0;endArrow=open;endFill=0;" edge="1" parent="-z7ZguEvUrwJFCWL5diD-4" source="-z7ZguEvUrwJFCWL5diD-23" target="-z7ZguEvUrwJFCWL5diD-27">
          <mxGeometry relative="1" as="geometry" />
        </mxCell>
        <mxCell id="-z7ZguEvUrwJFCWL5diD-23" value="&lt;font style=&quot;font-size: 10px;&quot;&gt;Launch AR lab&lt;/font&gt;" style="ellipse;whiteSpace=wrap;html=1;" vertex="1" parent="-z7ZguEvUrwJFCWL5diD-4">
          <mxGeometry x="36.5" y="30" width="60.5" height="35" as="geometry" />
        </mxCell>
        <mxCell id="-z7ZguEvUrwJFCWL5diD-26" value="&lt;font style=&quot;font-size: 10px;&quot;&gt;&lt;span data-end=&quot;549&quot; data-start=&quot;535&quot;&gt;Select Lab&lt;/span&gt;&lt;/font&gt;" style="ellipse;whiteSpace=wrap;html=1;" vertex="1" parent="-z7ZguEvUrwJFCWL5diD-4">
          <mxGeometry x="197" y="30" width="60.5" height="35" as="geometry" />
        </mxCell>
        <mxCell id="-z7ZguEvUrwJFCWL5diD-35" style="edgeStyle=orthogonalEdgeStyle;shape=connector;rounded=0;orthogonalLoop=1;jettySize=auto;html=1;entryX=0.5;entryY=0;entryDx=0;entryDy=0;strokeColor=default;align=center;verticalAlign=middle;fontFamily=Helvetica;fontSize=11;fontColor=default;labelBackgroundColor=default;endArrow=open;endFill=0;" edge="1" parent="-z7ZguEvUrwJFCWL5diD-4" source="-z7ZguEvUrwJFCWL5diD-27" target="-z7ZguEvUrwJFCWL5diD-28">
          <mxGeometry relative="1" as="geometry" />
        </mxCell>
        <mxCell id="-z7ZguEvUrwJFCWL5diD-27" value="&lt;font style=&quot;font-size: 10px;&quot;&gt;&lt;span data-end=&quot;549&quot; data-start=&quot;535&quot;&gt;Select Lab&lt;/span&gt;&lt;/font&gt;" style="ellipse;whiteSpace=wrap;html=1;" vertex="1" parent="-z7ZguEvUrwJFCWL5diD-4">
          <mxGeometry x="36.5" y="90" width="60.5" height="35" as="geometry" />
        </mxCell>
        <mxCell id="-z7ZguEvUrwJFCWL5diD-36" style="edgeStyle=orthogonalEdgeStyle;shape=connector;rounded=0;orthogonalLoop=1;jettySize=auto;html=1;strokeColor=default;align=center;verticalAlign=middle;fontFamily=Helvetica;fontSize=11;fontColor=default;labelBackgroundColor=default;endArrow=open;endFill=0;" edge="1" parent="-z7ZguEvUrwJFCWL5diD-4" source="-z7ZguEvUrwJFCWL5diD-28" target="-z7ZguEvUrwJFCWL5diD-29">
          <mxGeometry relative="1" as="geometry" />
        </mxCell>
        <mxCell id="-z7ZguEvUrwJFCWL5diD-28" value="&lt;font style=&quot;font-size: 8px;&quot;&gt;Scan Environment&lt;/font&gt;" style="ellipse;whiteSpace=wrap;html=1;" vertex="1" parent="-z7ZguEvUrwJFCWL5diD-4">
          <mxGeometry x="36.5" y="150" width="60.5" height="35" as="geometry" />
        </mxCell>
        <mxCell id="-z7ZguEvUrwJFCWL5diD-29" value="&lt;font style=&quot;font-size: 10px;&quot;&gt;View Model&amp;nbsp;&amp;nbsp; &lt;br&gt;&lt;/font&gt;" style="ellipse;whiteSpace=wrap;html=1;" vertex="1" parent="-z7ZguEvUrwJFCWL5diD-4">
          <mxGeometry x="36.5" y="210" width="60.5" height="35" as="geometry" />
        </mxCell>
        <mxCell id="-z7ZguEvUrwJFCWL5diD-39" style="edgeStyle=orthogonalEdgeStyle;shape=connector;rounded=0;orthogonalLoop=1;jettySize=auto;html=1;strokeColor=default;align=center;verticalAlign=middle;fontFamily=Helvetica;fontSize=11;fontColor=default;labelBackgroundColor=default;endArrow=open;endFill=0;" edge="1" parent="-z7ZguEvUrwJFCWL5diD-4" source="-z7ZguEvUrwJFCWL5diD-30" target="-z7ZguEvUrwJFCWL5diD-31">
          <mxGeometry relative="1" as="geometry" />
        </mxCell>
        <mxCell id="-z7ZguEvUrwJFCWL5diD-30" value="&lt;font style=&quot;font-size: 8px;&quot;&gt;Interact with Model&lt;/font&gt;" style="ellipse;whiteSpace=wrap;html=1;" vertex="1" parent="-z7ZguEvUrwJFCWL5diD-4">
          <mxGeometry x="36.5" y="270" width="60.5" height="35" as="geometry" />
        </mxCell>
        <mxCell id="-z7ZguEvUrwJFCWL5diD-31" value="&lt;font style=&quot;font-size: 10px;&quot;&gt;Complete Lab &lt;br&gt;&lt;/font&gt;" style="ellipse;whiteSpace=wrap;html=1;" vertex="1" parent="-z7ZguEvUrwJFCWL5diD-4">
          <mxGeometry x="36.5" y="330" width="60.5" height="35" as="geometry" />
        </mxCell>
        <mxCell id="-z7ZguEvUrwJFCWL5diD-37" style="edgeStyle=orthogonalEdgeStyle;shape=connector;rounded=0;orthogonalLoop=1;jettySize=auto;html=1;entryX=0.447;entryY=0.043;entryDx=0;entryDy=0;entryPerimeter=0;strokeColor=default;align=center;verticalAlign=middle;fontFamily=Helvetica;fontSize=11;fontColor=default;labelBackgroundColor=default;endArrow=open;endFill=0;" edge="1" parent="-z7ZguEvUrwJFCWL5diD-4" source="-z7ZguEvUrwJFCWL5diD-29" target="-z7ZguEvUrwJFCWL5diD-30">
          <mxGeometry relative="1" as="geometry" />
        </mxCell>
        <mxCell id="-z7ZguEvUrwJFCWL5diD-15" style="edgeStyle=orthogonalEdgeStyle;rounded=0;orthogonalLoop=1;jettySize=auto;html=1;endArrow=open;endFill=0;entryX=0.5;entryY=0;entryDx=0;entryDy=0;" edge="1" parent="1" source="-z7ZguEvUrwJFCWL5diD-5" target="-z7ZguEvUrwJFCWL5diD-23">
          <mxGeometry relative="1" as="geometry">
            <mxPoint x="120" y="120" as="targetPoint" />
          </mxGeometry>
        </mxCell>
        <mxCell id="-z7ZguEvUrwJFCWL5diD-40" style="edgeStyle=orthogonalEdgeStyle;shape=connector;rounded=0;orthogonalLoop=1;jettySize=auto;html=1;entryX=0.5;entryY=0;entryDx=0;entryDy=0;strokeColor=default;align=center;verticalAlign=middle;fontFamily=Helvetica;fontSize=11;fontColor=default;labelBackgroundColor=default;endArrow=open;endFill=0;" edge="1" parent="1" source="-z7ZguEvUrwJFCWL5diD-5" target="-z7ZguEvUrwJFCWL5diD-26">
          <mxGeometry relative="1" as="geometry" />
        </mxCell>
        <mxCell id="-z7ZguEvUrwJFCWL5diD-5" value="&lt;font style=&quot;font-size: 10px;&quot;&gt;Student&lt;/font&gt;" style="shape=umlActor;verticalLabelPosition=bottom;verticalAlign=top;html=1;outlineConnect=0;" vertex="1" parent="1">
          <mxGeometry x="188" width="25" height="50" as="geometry" />
        </mxCell>
      </root>
    </mxGraphModel>
  </diagram>
</mxfile>
